<?xml version="1.0" encoding="utf-8"?>
<!-- Svg Vector Icons : http://www.onlinewebfonts.com/icon -->
<!DOCTYPE svg PUBLIC "-//W3C//DTD SVG 1.1//EN" "http://www.w3.org/Graphics/SVG/1.1/DTD/svg11.dtd">
<svg version="1.1" xmlns="http://www.w3.org/2000/svg" xmlns:xlink="http://www.w3.org/1999/xlink" x="0px" y="0px" viewBox="0 0 1000 1000" enable-background="new 0 0 1000 1000" xml:space="preserve">
<metadata> Svg Vector Icons : http://www.onlinewebfonts.com/icon </metadata>
<g><g id="e6c6b53d3c8160b22dad35a0f7103ecc"><path d="M289,247.8c-3.4-29.3,23-16.9,19.6,0.8C303.7,253.3,294.5,249.4,289,247.8z M320.4,242.3c6.7-0.7,13-1.7,14.9-7.1c-9.2-5.7-22.9,8.3-17.3,14.9C321.2,249.9,318.4,243.7,320.4,242.3z M232.4,260.3c5.5-2.6,14.6-1.6,17.3-7.1c-16.5-5.7-46.2-1.5-51.1,9.4C211.2,261.9,221.7,252,232.4,260.3z M195.5,263.5c-3.6-0.8-4.9,3.3-3.1,5.5C195.1,268.9,195.5,266.4,195.5,263.5z M186.8,279.2c-0.5-7.5-18.6-13.5-20.4-3.1C168,281.9,182.6,285.7,186.8,279.2z M156.2,272.1c-3.7,0.2-5.7,2.2-7.9,3.9C151.2,277.7,157.5,277.1,156.2,272.1z M146.7,293.4c13.8-1,18.1,11.8,29.9,10.2C178.8,289.9,150.6,271,146.7,293.4z M333.8,361.7c-4.1-13.7,8.5-25.5,0.8-36.2c-10.7,0.9-19.9,50.5-4.7,50.3c10.9-0.2,14.8-30.2,15.7-40.1C337.6,340.3,341,356.4,333.8,361.7z M202.5,356.2c0.2-2.1-1.1-2.6-3.1-2.4C199.5,356,201.2,357.6,202.5,356.2z M241.1,379c0.2-4.9,0-9.4-3.9-10.2c-3-0.3-2.8,2.5-4.7,3.1C233.5,376.1,235.7,379.2,241.1,379z M203.3,404.2c15.1,1.7,25.2,12.6,39.3,12.6c-11.3-7.6-23-14.7-40.9-15.7C201.2,403.2,203.3,402.6,203.3,404.2z M322,416c-1.2-5.4-3.5-9.6-6.3-13.4C316.7,408.1,318.1,413.3,322,416z M235.5,433.2c-9.9-13.2-25.6-24.7-43.2-27.5C194.8,426.8,218.3,427,235.5,433.2z M208.8,438c-6.7-11.3-18.3-17.9-32.2-22C184.4,425.7,191.6,440.2,208.8,438z M172.7,427c2.7,4.7,9.4,9.4,7.9,15.7c-6.9-2-10.2-7.6-17.3-9.4c3.7,5.2,18,28.2,26.7,27.5c5.5-0.5,8.1-6.6,7.1-16.5C192.8,435.1,179.3,431.1,172.7,427z M212.8,447.4c1.7,4.8,2.4,10.7,8.6,11C220.3,452.9,217.1,449.6,212.8,447.4z M207.3,449.8c-2.9-0.3-4.6,0.6-4.7,3.1c0.9,0.2,1.2,0.9,1.6,1.6C206.6,454.4,207.6,452.7,207.3,449.8z M341.6,467.8c0.8-4.4,1.7-13,0-17.3C340.6,454.9,336.8,464.9,341.6,467.8z M286.6,451.3c0.6,4.6-1.6,12.1,2.4,13.4C289.2,461.2,290,453.5,286.6,451.3z M323.6,469.4c-2.3-2-5.6,1-7.1-0.8c-1.6-5.2-0.9-12.7-5.5-14.9c-0.5,0-1,0-1.6,0c-6.5,13.4-5.8,42.2,5.5,49.5c2.1,3.6,2.3,9.2,7.9,9.4c4.5-3.6,5.6-10.6,6.3-18.1C319.2,492.5,328.4,475.5,323.6,469.4z M347.1,478c1-7,6.9-17.1,2.4-24.4C348,460.6,345.1,470.3,347.1,478z M208.8,484.3c1.3-3.6,0.3-9.7-2.4-11.8C204.6,476,203.6,483.9,208.8,484.3z M223,487.5c3.2,2.1,3.4,7.1,7.9,7.9C236.4,488.3,225.9,475.8,223,487.5z M357.4,503.2c0,2.4-3.2,5.7-0.8,7.9C357,509.1,359.4,505,357.4,503.2z M364.4,533.8c0-3.6,0.4-7.8-1.6-9.4C362.5,527.2,360.4,533.4,364.4,533.8z M264.6,566.1c0.5,2.9,0.9,5.9,3.9,6.3C270.5,569.6,269.1,564.9,264.6,566.1z M300,570c1.1,2.1,4.2,6.2,6.3,4.7C304.5,573.4,302.4,568.2,300,570z M374.6,578.6c-2.2,9.4,3,17.9,7.1,23.6C383.4,593.1,383.2,580,374.6,578.6z M394.3,639.1c1.2-2.4,1.6-9.7-0.8-11C391.4,631,389.6,637.8,394.3,639.1z M429.7,676.9c-1.1-5.8-5.7-12-10.2-11.8C421,670.8,421.3,677.9,429.7,676.9z M436.7,687.9c0,3.6-0.4,7.8,1.6,9.4C438.4,693.5,438.4,689.9,436.7,687.9z M177.4,688.7c0,2.9,1.6,4.2,3.1,5.5C180.2,691.6,179.9,689.1,177.4,688.7z M465,731.9c-1.9-14.8-9.7-23.8-19.6-30.6C446.8,716.6,454.3,725.8,465,731.9z M591.6,809.7c-0.5-0.4-3.7-1.8-3.9,0C588.8,810.6,590.9,812.4,591.6,809.7z M990,867.8c0,2.9,0,5.8,0,8.6c-1.3,2.7-1.7,6.2-2.4,9.4c-21.9,14-62.9,8.9-80.9,26.7c-31.6-17-61,9.8-94.3,12.6c-5.5,0.5-11.6-0.5-17.3,0c-19.6,1.6-38.8,6.2-58.9,7.9c-20.6,1.7-41.3,3-62.9,3.9c-7.9,0-15.7,0-23.6,0c-97.5-5.1-193.8-18.2-265.6-50.3c-35.8-16-68.7-35.6-99-58.9c-29.5-22.7-59.7-47.9-81-76.2c-22.6-30.1-45.2-59.4-65.2-92.7c-19.3-32.1-37.4-66-53.4-103.7C69.6,517.8,58.4,481,47.7,435.6c-7-29.7-14.3-63.3-26.7-91.2c-4.8-10.8-10.5-19.7-11-29.9c0-2.4,0-4.7,0-7.1c3.9-33,29.5-52.2,59.7-61.3c7.6-2.3,14.9-4.5,22-8.6c0.5-0.3,5-0.7,3.1-3.1c-13.4-3.2-24.5,16.6-39.3,11c-13.1-4.9-5.6-25.3,8.6-31.4c6.6-2.9,19.8-3.6,25.9-7.1c10.6-5.9,15.3-18.5,13.4-29.9c-1.2-6.7-8.2-10.3-7.9-15.7c0.4-7.6,14-14.2,20.4-18.9c7.9-5.8,17.3-12.9,16.5-22c-0.8-9.5-11.9-12.5-17.3-19.6c-8.4-11.2-9.7-28,3.9-34.6c14.3-6.9,41-3.1,44,14.9c2.6,15.9-8.7,22-3.9,33.8c8.8,22,77.5-12.8,60.5,33c15.1,23.7,74.1,3.4,75.4,40.9c24.6,0.5,35.9,19.2,55.8,26.7c5.3,2,11.7,2,17.3,3.9c33.5,11.4,75,23.6,88.8,55.8c-12.4,8.4-29.4,2.8-44-2.4c-12.7-4.5-31.2-13.3-44-7.9c-12.7,5.4-12,27-10.2,48.7c4.7,57.7,7.5,117.3,15.7,169c11.5,72.2,36.1,129.9,70.7,175.3c33.5,43.8,72.9,89.7,124.2,121.8c43.2,27,91.8,48.4,153.3,62.1c9.1,2,20.1,6.5,25.1,5.5c7.4-1.4,23.4-23,29.1-28.3c13.5-12.6,31.7-30.2,51.1-14.9c-2.6,21-21.4,25.8-25.9,44.8c11.6,7.4,24,0.7,38.5,1.6c16.9,1,29.9,10.7,44,8.6c9-1.3,13.6-8,20.4-12.6C920.7,869.4,980.9,839.7,990,867.8z M819.5,809.7c-0.3-2.5,1-6.8-1.6-7.1C815.6,803.8,813.4,811,819.5,809.7z M424.2,256.4c7.7,4.6,14.5,10.1,21.2,15.7c4.1-12-7.6-19.6-21.2-18.9C424.2,254.3,424.2,255.4,424.2,256.4z M635.6,835.6c3,0.6,5.2,1.2,5.5-2.4C638.3,833.1,636.4,833.8,635.6,835.6z M527.1,766.5c-0.3,3.7,7.2,3.8,8.7,3.1C534.5,767.1,530.8,764,527.1,766.5z M508.2,751.5c1.3,1.3,4.6,0.6,7.1,0.8c0.3-2.9-0.9-4.4-1.6-6.3C509.6,745.6,508.5,748.1,508.2,751.5z M357.4,430.1c-2.1-1.8-3.7,1.5-4.7,0c2.6-19.5,6.7-49.5-1.6-66c-2-1.8-5.3,0.6-6.3-0.8c5.5-13.1,9.2-40.4,7.1-56.6c-0.7-5.7-3.7-15.8-7.1-18.1c-8.5-5.6-16.2,3-22,4.7c-3.7,1.1-7.8,0.3-11.8,0.8c-15.8,1.9-32.7,6.6-43.2,11.8c5.5,3.7,13.3,5,15.7,11.8c-13.7-1-24.4-5-36.2-7.9c1.3,17.7-20.5,12.2-33.8,13.4c4.6,0.1,5.3,2.3,5.5,5.5c0.5,10.4-33.8,22.8-45.6,14.9c-16.8,13.6,7.4,27.4,6.3,44.8c-3.3,2.5-4.8,6.7-7.9,9.4c-16.7,0.4-34.3,3.8-31.4,21.2c-2.3-1.3-5.8-2.2-8.6-0.8c-4.3,11,2.9,23,12.6,25.2c2.4-0.7,3-3.3,6.3-3.1c21.9,4.2,29.5,18.7,28.3,46.4c-0.2,4.8,0.3,11-3.1,14.2c-12.4-0.9-23.9-31.5-3.9-32.2c-4.8-7-8.4-17.6-17.3-17.3c-10.2,0.3-14.7,16.4-22,22c10.5,5.8,35.1,21.8,14.9,32.2c10,1.5,15.5,5.4,19.6,11c6.9,9.3,6.6,23.2,11.8,30.7c10.4,15.2,15.9-13.6,28.3-1.6c2.9,1-1.3-2.8-1.6-3.1c-10.6-11.5-26.8-20.9-33-34.6c4.8-2.2,11.2,0.2,15.7,0.8c1.8-9.2-4.6-19.7-2.4-26.7c1.6-5.1,4.6-2.8,7.9-4.7c1.9-1.1,0.4-5.2,3.9-3.9c0,10.8-6.5,28.9,0.8,36.9c10.7,1.9,13.7-16.4,22.8-16.5c5.1,0,9.8,8.9,13.4,13.4c4.2,5.4,10,12,8.6,18.1c-2.8,12.7-24.2,3-31.4-2.4c4.4,17.6,31.7,20.3,33,43.2c0.1,2.6-1.1,5.8-0.8,8.6c1.5,12.1,12.8,21,24.4,13.4c1.7,4.3,1.9,10.1,6.3,11.8c3.8-3.2,2.5-11.7,4.7-16.5c13.7,2.9,20.9,9.5,25.1,20.4c2.1,5.4,1.6,15.5,10.2,15.7c1.3-13.4-9.2-21.7-11-34.6c7,11.4,32.5,23.7,31.4,41.7c-0.7,11.9-14.8,13.2-28.3,14.9c12.9,4.4,18.3,18.9,32.2,23.6c3.7,1.3,8.6,0.2,12.6,1.6c10.2,3.5,26.5,24.5,22,37.7c-21.7,11-38.7-18.7-62.9-18.1c10.2,13,26.9,17.3,40.9,23.6c15.1,6.7,30.2,13.6,44.8,20.4c34.5,16,58.4,37,80.9,63.7c-15.7,8.5-63.1-5.7-34.6-15.7c-9.9-0.3-20.4-6.6-29.1-3.1c4.6,30,44,25.1,73.9,29.9c-2.7,5.1-6.5,9.2-9.4,14.1c2.3,1.4,5.5,1.9,9.4,1.6c-1.9,3.1-6.9,3.1-7.1,7.9c3.8,5.1,11.4,6.4,16.5,10.2c20.2-14.5,22.5,18.4,35.4,18.9c12.2,0.5,14.5-17.1,26.7-18.9c-3.1,6.4-9.1,9.8-11.8,16.5c11.9-2.9,15.3-9.3,25.1-11.8c35.1-8.9,63.9,20.4,92.7,23.6c10.4,1.2,20.7,7,29.9,8.6c11.8,2.1,19.1-1.8,28.3-6.3c-14-13-46-8-57.4-23.6c0.4-2.7,2.3-4,3.9-5.5c-36.8,8.1-59.9-14-75.4-34.6c-45.4-11.7-85.2-29-104.5-66.8c-0.9-3.6,3.5-1.8,2.4-5.5c-16-17.8-31.9-35.8-44.8-56.6c-4.5-7.2-7.5-16.2-12.6-22c-3.2-3.7-8.6-5.7-11.8-9.4c-3.5-4.1-4-9.3-9.4-11c-2.1,3.1-0.7,9.8-2.4,13.4c-3.8-15.2-12.2-29.6-28.3-29.9c-0.3-11,8.6-12.9,13.4-18.9c-6.2-7.5-7.7-17-11-28.3c-7.9-27.5-14.5-56.3-21.2-81.7c-9,3.3-11.3,13.3-15.7,21.2c0.4-11.4,1-22.6,7.1-28.3c2.8,0.4,3.1,3.2,4.7,4.7c1.5-5.4,6.5-10.3,3.9-17.3c-2-3.1-8-1.7-9.4-1.6C358.9,458.3,362.1,441.1,357.4,430.1z M673.3,896.1c6.8-2.9,12.9-6.5,15.7-13.4C681.6,884.6,671.2,887.4,673.3,896.1z M674.1,880.4c-4.5,2.5-9.7,4.5-12.6,8.6C668,889.4,675.6,882.9,674.1,880.4z M649.7,892.2c4.4-1.2,9.2-5.8,8.6-9.4C653.2,883.3,645.2,887,649.7,892.2z M652.9,874.1c-7.1-2.2-12.8,3.3-13.4,10.2C645.8,882.8,650.1,879.2,652.9,874.1z M630.8,875.7c-6.9,1.2-12.1,4.1-14.1,10.2C625.1,889.3,629.5,882,630.8,875.7z M619.8,896.1c1.9,0.1,3.8,0.1,3.9-1.6C622.6,893.3,619.3,893.4,619.8,896.1z M632.4,862.3c-11-0.8-24.1,6.3-17.3,15.7C622.5,874.4,629.9,870.8,632.4,862.3z M578.2,877.3c6.9,1,8.7-6.9,13.4-5.5c2.7,1.7,1.1,7.8,5.5,7.9c10.3-2.1,14-16.1,7.9-25.9C591.1,856.1,578.4,863.8,578.2,877.3z M581.3,856.8c-4.2,2.1-8.6,3.9-11,7.9C575.5,864.5,583.1,858.8,581.3,856.8z M559.3,860.8c0.4,2.1-3.2,4-0.8,5.5C559.2,865.3,563.3,861.4,559.3,860.8z M545.2,879.6c-0.2,1.1-1.1,1.5-0.8,3.1c1,0,2.1,0,3.1,0C547.8,880.7,547.3,879.4,545.2,879.6z M533.4,875.7c-4,0.2-5.5,2.9-5.5,7.1C531.3,882,534.4,880.9,533.4,875.7z M454,835.6c-4.8-0.2-6.3,0.5-0.8,1.6c5.3,1,14.6,1.5,18.1,0C467.2,837.1,456.4,835.7,454,835.6z M477.6,823c-4.1-3.1-12.4-0.9-16.5,0.8C463.5,830.4,475.2,827.5,477.6,823z M452.5,882c19.6,10.3,46.6,21.5,74.7,18.1C506.7,890.1,476.4,885.8,452.5,882z M423.4,873.3c1.9,2.6,6.3,2.6,9.4,3.9C438.6,871.7,425.9,868.5,423.4,873.3z M349.5,809.7c-5.3,0.5-11.1,0.4-12.6,4.7C342,816.3,349.3,815.1,349.5,809.7z M334.6,830.1c1.8,1.7,5.2,3.7,6.3,0C340,829.3,335.2,828.5,334.6,830.1z M344,763.3c0.7-3.3-5.5-4.5-6.3-1.6C339.4,762.6,340.9,763.8,344,763.3z M354.2,790c0-1.1,0.4-1.7,0.8-2.4c-2.3-2.4-7.1-2.8-11-1.6C344.6,789.9,350.9,791.5,354.2,790z M355,840.3c1,1.1,3.7,1.1,4.7,0c0.4-2.5-1-3.2-2.4-3.9C356.7,837.8,355.5,838.7,355,840.3z M379.4,750c-2.6-7.4-10.9-5.4-16.5-7.9c-9-3.9-16.7-13.1-28.3-13.4c-0.5,0-1,0-1.6,0C343.1,740.6,356.5,753.4,379.4,750z M338.5,720.9c-7.3-5-15.4-9.3-25.9-11C315.9,718.3,329,721.2,338.5,720.9z M362.9,757.8c5.5,5.8,12.4,10.1,24.4,9.4C382.6,761.1,371.7,757.1,362.9,757.8z M392.7,793.2c-8.1-5.6-20.8-14.7-31.4-12.6C367.4,788.6,379.8,794.6,392.7,793.2z M362.9,823c-0.2,1.1-1.3,1.3-1.6,2.3C363.2,827.9,366.1,823.6,362.9,823z M380.9,846.6c0.7,3,3.6,3.8,6.3,4.7c1.1-1.8,3.2-2.6,2.4-6.3C387.7,843.9,380.8,843.2,380.9,846.6z M395.9,812c-2.4-1.5-11.3-3.2-13.4,0C386.3,813.6,393.8,817.6,395.9,812z M398.2,785.3c0.8-5.8-5.8-5.9-8.6-3.9C389.8,785.3,395,784.3,398.2,785.3z M406.9,742.9c-3.5-5.4-13.4-4.4-20.4-6.3c-5.1-6.5-17.4-8.8-28.3-7.1C370.6,737.8,384.7,744.4,406.9,742.9z M405.3,818.3c3.4,2.9,8.7,3.9,13.4,5.5c0.3-1.9,1.2-3,0.8-5.5C417.2,815.7,407.2,814.3,405.3,818.3z M338.5,691c0.8-3.7-1.4-4.4-4.7-3.9C332.6,691.2,336.5,690.1,338.5,691z M357.4,700.4c-2.3-0.6-1.5-4.2-4.7-3.9C349.7,699.2,355,703.2,357.4,700.4z M303.1,705.9c-2.6-5.8-8.5-8.3-12.6-12.6c7.7-11.1-9.4-15.6-12.6-23.6c0-2.4,1.7-3.1,2.4-4.7c-6.6-3.9-14.2-6.7-18.1-13.3c3-2.2,11.1,0.7,14.1-1.6c-4.8-2-9.9-3.7-11.8-8.6c2.8-6.4,14-4.4,16.5-11c-13.5-3-27-10.2-41.7-9.4c0.2,5.6,5.1,6.4,7.1,10.2c-4.3-1.9-7.9-4.7-14.1-4.7c-0.5,3.9,2,4.8,1.6,8.6c-4.3,0.4-6.5-1.4-11-0.8c3.2,7.2,11.6,9.4,14.1,17.3c-3.2,0.8-7.6-1.3-8.6,0c8.3,6.9,20.4,14.2,25.1,22c-7.7-1.4-12.1-6.2-19.6-7.9c6.3,12.4,21.6,15,33,21.2C278.7,693.4,289.2,703.6,303.1,705.9z M285.8,715.4c3.3,1.8,9.8,7.5,14.1,3.2C296.3,716.9,290.6,713.2,285.8,715.4z M279.6,711.4c-2.2-3.6-13.5-5.5-16.5-3.1C268.2,709.8,273,713.8,279.6,711.4z M265.4,713.8c-0.2,1.1-1.1,1.5-0.8,3.1c1.4-0.5,4.6,0.9,4.7-0.8C268.1,715.3,267.7,713.6,265.4,713.8z M255.2,609.3c-2.1-7.4-5-15.5-11-21.2c-3.2-3.1-6.4-3-8.6-7.1c-6.1-10.7-3.2-25.8-11-36.9c-1.9-0.6-5.4-1.6-7.1,0c0.1,5.2,12.1,17.4,3.9,23.6c-18.1,0.7-25-13.7-42.4-11c-3.9,10.2,9.9,15.4,6.3,22.8C210.3,587.4,230.1,604.8,255.2,609.3z M198.6,632.9c4.6,3.5,11.3,9.1,17.3,8.6C211.1,638.1,206.8,630.2,198.6,632.9z M190,625.8c-2-6.3-5.6-11.2-13.4-11.8C178.2,620.8,185.6,621.8,190,625.8z M176.6,646.2c4.2,2.9,8.4,9.9,12.6,10.2C186.1,652.4,182.4,644.9,176.6,646.2z M182.1,592c0.4-1.2,1.2-2,1.6-3.1c-2-2.8-7-1.3-7.9,1.6C177.4,591.5,180.3,591.2,182.1,592z M303.9,623.4c-0.1-6.8-7.6-10.7-13.4-7.1C292.4,621.4,297.9,622.7,303.9,623.4z M230,520.5c0.1-1.3-4.8-1.3-4.7,0C226.4,520.7,230.1,524,230,520.5z M199.4,517.3c-1,0-2.1,0-3.1,0c-1.1,1-0.8,3.4-0.8,5.5c1.4,0.2,4.4,2.8,5.5,0.8C199,522.9,201.2,518.2,199.4,517.3z M140.5,516.5c2.6,5.9,13.1,5.5,14.9-0.8C150.9,514,144.3,515.2,140.5,516.5z M142.8,494.5c-3-0.2-5.8,0-7.9,0.8C135.6,498.8,142.8,498.1,142.8,494.5z M149.9,368c-4,1.9-12.5-1.9-16.5,0c3.6,14.2,30.1,6.5,28.3-4.7c-1.5-9.5-26.7-7.2-35.4-6.3C133,361.8,143.6,362.7,149.9,368z M118.5,382.9c1.5,2.2,5.5,1.8,7.9,3.1c0.5-1.6,2-2.2,1.6-4.7C125.8,380.3,118.4,379.4,118.5,382.9z M158.5,379.8c-0.4,1.7-1.9,5.1,0.8,5.5C161.2,384,160.8,380.9,158.5,379.8z M180.5,332.6c-0.2-2.3,1.8-2.4,1.6-4.7c-3.2-0.3-5.5,0.3-5.5,3.1C178.1,331.4,178.6,332.8,180.5,332.6z M179.8,158.2c-3.1,19.2,14.1,42.4,34.6,35.4c1-7.2-2.3-10.2-2.4-16.5c5.2-1.3,8.3,3.7,11,2.4C215.3,165.6,195,164.4,179.8,158.2z M171.1,140.1c6.9,1.4,17.7,0.7,20.4-4.7C186.3,131.9,170.7,131,171.1,140.1z M152.2,85.1c1.5-15.3-17.1-23.7-28.3-13.4c-7,6.5-10,22.1,0.8,27.5c-1.2-4-4.8-5.7-3.9-11.8C129,82.8,144,89.7,152.2,85.1z M146.7,135.4c2-1.1,5-1.3,4.7-4.7C149,130.9,144.9,133.5,146.7,135.4z M130.2,193.5c9.8,0.2,17.2-5.3,26.7-5.5c8.3-0.2,16.1,2.3,25.9,1.6C175.9,169,141.8,187,130.2,193.5z M115.3,229.7c18.5-2.4,44.4-14.6,69.2-11.8c9.3,1,17.5,6.3,22.8,10.2c-2.7-2.9-5.9-14.6,0-16.5c12.9,2.5,13.3,26.8,29.1,23.6c8-1.7,10.5-17.2,6.3-26.7c6,4.2,9.1,11.3,17.3,13.4c-1.9-7.6-7.3-11.6-11-17.3c2.3-2.9,5.4-5.1,4.7-11c-22.5-2.2-42.5,10-63.7,14.1c-16.5,3.2-28.7,6.5-43.2,10.2C135.8,220.7,123.7,222.7,115.3,229.7z M49.3,392.4c-1.1,1-1.4,4.7,0.8,4.7C50.7,396.5,52.2,391.7,49.3,392.4z M76.8,298.9c-34.5,5.5,2.3,42.1,22.8,33c2.6-4,1.8-7.6,1.6-13.4c12,1.2,21-4.7,31.4-2.4c1.7,3.7-1.5,6.7-2.4,10.2c35.7-2.3,53.3-30.3,91.9-34.6c4.8-0.5,10.3,0.3,15.7,0c16.3-0.9,34.3-4,51.1-7.1c16.5-3,31.5-9.1,45.6-12.6c17.6-4.4,44.4-15.9,40.9-39.3c-0.4-2.7-2.3-5.1-3.9-7.9c-93.7-9.1-163.7,27.7-237.3,42.4c-8.8,1.8-19.6,0.6-26.7,7.9c2.6,6.3,11.6,6.2,15.7,11c-2,2.4-7.1,1.8-7.9,5.5c1.7,6.6,11.6,5.2,12.6,12.6c-15.6,11-48.4-3-40.9-25.2c-23.6,5.2-58.1,10.3-58.2,36.9c0,11.7,6.9,22.6,14.9,29.1C38.4,320.5,47.6,283.9,76.8,298.9z M105.9,445.8c0.7-5.3-8-9-11-5.5C97.8,442.9,102.3,443.9,105.9,445.8z M78.4,456c5.6,19.3,7.4,42.4,22,52.7C98.2,486,90.1,469.2,78.4,456z M111.4,435.6c2.4-11.1-13.8-15.4-14.9-7.9C95.5,434.3,105.9,433.6,111.4,435.6z M114.5,414.4c-3.5-3.9-12.5-6.3-18.9-4.7C97.9,415.2,111.8,423.5,114.5,414.4z M105.1,379.8c3.5-2.2,7.3-4.2,7.9-9.4c-4.6-3.4-15.5-3.9-16.5,1.6C95.7,376.1,101.2,377.8,105.1,379.8z M115.3,393.2c0.3-2.7-0.3-4.4-0.8-6.3c-4-0.1-5.9,1.9-6.3,5.5C110.2,393,112.4,393.4,115.3,393.2z M60.3,389.2c-0.6-2-0.8-4.5-2.4-5.5C56,385.8,55.9,389.6,60.3,389.2z M68.2,335.8c-3.5-1.4-8.7,0.1-10.2,3.1c1.6,1.5,4,2.3,6.3,3.1C65,339.5,68.6,339.6,68.2,335.8z M76.8,437.2c-2-4.5-2.3-10.8-6.3-13.4C59.8,425.3,70.4,440.8,76.8,437.2z M91.7,522c7.7,18.6,15.8,38.6,32.2,47.2c-12.3-13.7-15.2-36.3-23.6-52.7c-2.9-5.6-7.5-10-10.2-15.7c-6.4-13.4-9.3-29.1-22-35.4C73.2,485.2,83.9,503.1,91.7,522z M307.9,816.8c-4.8-16.2-17.5-24.4-35.4-27.5c-4.4-10.5-17.1-12.7-19.6-25.1c-0.4-2.6,4.9-3.5,3.1-4.7c-23.9,4.5-24.8-20.8-36.2-31.4c-28.7,0.5-23.4-35-39.3-53.4c-4.5-5.3-9-6.5-14.1-11.8c-7.9-24.3-28.3-36.7-40.1-58.2c-10.4-19.1-12.6-40.6-29.9-54.2c13.6,46.2,42.9,85.3,69.2,124.2c21,31.1,35.3,60.8,58.9,85.7c8,8.4,17.1,14.1,26.7,22C267.7,795.6,279,820.6,307.9,816.8z M304.7,763.3c-0.8-3.4-6.9-5.6-10.2-3.9C297.5,761.1,300.9,762.4,304.7,763.3z M333.8,742.9c-5.3-6.2-16.5-8.6-26.7-12.6c-12.7-5-30.9-9.7-40.1-3.9c0.9,7.7,7.1,10.2,11,14.9c10.9,1.7,17.2,7,27.5,7.9C317.7,750.2,329.1,749.6,333.8,742.9z M708.6,922.1c-23.8-10.8-58.7,1.4-84.1-4.7c-4.8-1.2-9-4.5-13.4-4.7c-4.3-0.3-9.3,2-13.4,2.4c-21.8,1.9-41.7-0.2-62.1-3.2c-14.3-2.1-29.6-2.9-42.4-6.3c-12.3-3.3-25.1-10.8-37.7-15.7c-12.8-5-26.2-9.9-38.5-14.9c-24.3-9.9-50-27-75.4-33.8c17.1,18.2,46.7,24.1,66.8,39.3c-28.5-8-49.9-22.9-75.4-33.8c19.9,17.8,47.6,28.6,75.4,40.1c27.7,11.5,57.8,21.1,90.4,25.9C563.5,922.2,639.3,936.3,708.6,922.1z M729.1,919.7c-4,0.2-9.1-0.7-9.4,3.1C723.1,925.8,728.8,925.5,729.1,919.7z M771.5,827c1.1,5.8,9.5,4.1,8.7-2.4C775.9,824,774,825.8,771.5,827z M836.7,867.8c-21.1-0.5-47.2-7.8-69.2-7.1c-8.4,0.3-18.7,2.3-21.2,11c6.5,2.6,13.4,1.1,21.2,0.8C793.1,871.7,824.2,883.1,836.7,867.8z M858,866.3c-3.7,0-4.8,2.6-5.5,5.5c1,1.1,3.4,0.8,5.5,0.8C857.6,869.1,859,868.6,858,866.3z M904.3,863.1c-3.8-0.6-5.3,4.2-3.9,6.3c2.5,0.4,3.1-1.1,4.7-1.6C905.7,865.4,903.8,865.5,904.3,863.1z M969.6,867.8c-16.1-1.7-34.9-0.7-49.5,1.6C928.7,877.5,959.6,872.3,969.6,867.8z M213.5,390c7.8,4.3,14.9,13.4,25.2,12.6c-2.8-3.8-6.7-6.4-9.4-10.2c2.9-0.2,5.4-0.9,6.3-3.1c-9.6-6.7-21.8-14.9-26.7-23.6C212.1,371.9,217,381.9,213.5,390z M314.1,396.3c-1.7-1.7-0.9-5.9-3.1-7.1C310.5,392.7,312.7,397.4,314.1,396.3z M241.8,464.7c1.2,12.9,9.5,18.8,10.2,32.2c-9.2-10.5-14.3-25-20.4-38.5c-0.6,16.4,4.3,26.5,8.6,37.7c3.3,8.6,6.4,18.7,14.9,21.2c4-0.7,3.8-5.7,7.9-6.3c4.4,0.6,6.6,7.5,9.4,7.1c-2.1-2.4-2.8-6.2-3.1-10.2c0.8-2.9,4.9-2.4,6.3-4.7C267.7,487,256.4,474.2,241.8,464.7z"/></g></g>
</svg>