<svg id="Layer_1" data-name="Layer 1" xmlns="http://www.w3.org/2000/svg" width="202" height="202" viewBox="0 0 202 202"><defs><style>.cls-1{fill:#fff;}.cls-2{fill:#231f20;}</style></defs><title>Logo_Connector</title><rect class="cls-1" x="2.19" y="2" width="198" height="198"/><path d="M201.31,201.12H1.06V.87H201.31Zm-198-2.25H199.06V3.12H3.31Z"/><g id="g3175"><path id="path3139" class="cls-2" d="M43.05,75.27h0a4,4,0,0,0-2.89-1.21,4,4,0,0,0-2.88,1.21h0a4.21,4.21,0,0,0,0,5.87v0a4,4,0,0,0,2.88,1.2,4.07,4.07,0,0,0,2.89-1.2v0a4.16,4.16,0,0,0,1.18-2.93,4.2,4.2,0,0,0-1.18-2.94Zm-2.89,56.81h0a4.08,4.08,0,0,0,2.89-1.21v0a4.12,4.12,0,0,0,1.18-2.92A4.2,4.2,0,0,0,43.06,125h0a4,4,0,0,0-2.89-1.22A4,4,0,0,0,37.28,125h0a4.17,4.17,0,0,0-1.19,2.94,4.08,4.08,0,0,0,1.19,2.92v0a4,4,0,0,0,2.88,1.21Zm22.22-12.57h0a4,4,0,0,0,2.48-1.93l.07-.15h0a4.2,4.2,0,0,0-1.57-5.53l-.06,0a4.06,4.06,0,0,0-5.52,1.57,4.19,4.19,0,0,0,1.49,5.67h0a4,4,0,0,0,3.1.41Zm-18-20.69h0a5.82,5.82,0,0,0-8.36,0,6,6,0,0,0-1.72,4.24A6.13,6.13,0,0,0,36,107.33a5.87,5.87,0,0,0,8.36,0,6.08,6.08,0,0,0,1.72-4.27,6,6,0,0,0-1.72-4.24ZM42,91.74h0A11.17,11.17,0,0,1,48.12,95h0c.26.26.51.55.75.84L53,93.41a9,9,0,0,1,4-10.52l.07,0a8.57,8.57,0,0,1,6.6-.87,8.83,8.83,0,0,1,5.34,4.18h0A9.07,9.07,0,0,1,69.82,93a8.94,8.94,0,0,1-4.1,5.44l-.56.33H65.1a8.68,8.68,0,0,1-10.32-2.09L50.71,99a11.45,11.45,0,0,1,.73,4,11.7,11.7,0,0,1-.73,4.07l4.07,2.38a8.68,8.68,0,0,1,10.94-1.76l.13.07h0A9,9,0,0,1,68.93,120l-.07.15h0a8.82,8.82,0,0,1-5.25,4,8.68,8.68,0,0,1-6.68-.89v0a9,9,0,0,1-4-10.51l-4.07-2.4c-.24.29-.49.57-.75.83v0a11.07,11.07,0,0,1-6.13,3.2v4.79a8.7,8.7,0,0,1,4.39,2.43h0a9,9,0,0,1,0,12.63v0h0a8.69,8.69,0,0,1-12.44,0h0v0a9,9,0,0,1,0-12.63h0a8.74,8.74,0,0,1,4.39-2.43v-4.79a11.07,11.07,0,0,1-6.13-3.2v0a11.55,11.55,0,0,1,0-16.19h0a11.17,11.17,0,0,1,6.13-3.23V87a9,9,0,0,1-4.39-2.44h0a9,9,0,0,1,0-12.64h0a8.67,8.67,0,0,1,12.44,0h0a9.06,9.06,0,0,1,0,12.64h0A8.94,8.94,0,0,1,42,87Zm22.87-3.18,0,0a4.15,4.15,0,0,0-2.45-1.88,4,4,0,0,0-3.11.41h0a4.1,4.1,0,0,0-1.91,2.53,4.22,4.22,0,0,0,.41,3.15l0,0a4,4,0,0,0,2.46,1.89,3.93,3.93,0,0,0,3.09-.4l.06,0a4.18,4.18,0,0,0,1.85-2.49,4.23,4.23,0,0,0-.4-3.16h0"/><path id="path3141" class="cls-2" d="M82.93,90h4.54v14.12L94,96.7h5.45l-7.91,8.55,7.94,10.83H94.3l-6.83-9.68v9.68H82.93V90"/><path id="path3143" class="cls-2" d="M104.75,106.47a5.77,5.77,0,0,0,5.79,5.9,5.37,5.37,0,0,0,5.06-3.1,6.68,6.68,0,0,0,.73-2.72,6.09,6.09,0,0,0-.52-2.72,5.58,5.58,0,0,0-5.3-3.42,5.78,5.78,0,0,0-5.76,6Zm16.09,9.61H116.3v-2.79a7.07,7.07,0,0,1-6.42,3.39c-6.1,0-9.67-4.84-9.67-10.31,0-6.1,4.33-10.27,9.67-10.27a7.11,7.11,0,0,1,6.42,3.43V96.7h4.54v19.38"/><path id="path3145" class="cls-2" d="M126,100.27h-2.36V96.7H126V95.61c0-5.76,4.3-6.1,7.56-6.14V93c-1.15,0-3,0-3,2.72v1h3v3.57h-3v15.81H126V100.27"/><path id="path3147" class="cls-2" d="M136.64,90h4.54v14.12l6.55-7.38h5.45l-7.91,8.55,7.94,10.83H148l-6.83-9.68v9.68h-4.54V90"/><path id="path3149" class="cls-2" d="M158.46,106.47a5.77,5.77,0,0,0,5.79,5.9,5.37,5.37,0,0,0,5.06-3.1,6.53,6.53,0,0,0,.73-2.72,6.09,6.09,0,0,0-.52-2.72,5.58,5.58,0,0,0-5.3-3.42,5.78,5.78,0,0,0-5.76,6Zm16.09,9.61H170v-2.79a7.09,7.09,0,0,1-6.42,3.39c-6.1,0-9.67-4.84-9.67-10.31,0-6.1,4.33-10.27,9.67-10.27A7.09,7.09,0,0,1,170,99.53V96.7h4.54v19.38"/></g></svg>